# xmcd CD database file
#
# Track frame offsets:
#	150
#	24652
#	49225
#
# Disc length: 982 seconds
#
# Revision: 0
# Processed by: cddbd v1.5.1PL0 Copyright (c) Steve Scherf et al.
# Submitted via: CDex 1.51
#
DISCID=2003d403
DTITLE=大竹　佑季 - ベアトリーチェ
DYEAR=2005
DGENRE=J-Pop
TTITLE0=ベアトリーチェ(合唱)
TTITLE1=ベアトリーチェ(独唱)
TTITLE2=ベアトリーチェ(伴奏)
EXTD=YEAR: 2005.1.25
EXTT0=
EXTT1=
EXTT2=
PLAYORDER=
